<svg width="191" height="508" viewBox="0 0 191 508" fill="none" xmlns="http://www.w3.org/2000/svg">
<rect width="191" height="508" fill="url(#paint0_linear_680_5946)"/>
<mask id="mask0_680_5946" style="mask-type:alpha" maskUnits="userSpaceOnUse" x="0" y="0" width="184" height="508">
<rect width="184" height="508" fill="white"/>
</mask>
<g mask="url(#mask0_680_5946)">
<path opacity="0.1" d="M-59 85.709C26.7697 85.709 97 158.304 97 248.735C97 339.167 26.7697 411.762 -59 411.762C-144.77 411.762 -215 339.167 -215 248.735C-215 158.304 -144.77 85.709 -59 85.709Z" stroke="#6594A1" stroke-width="20"/>
<path opacity="0.1" d="M-59 19.9307C64.3277 19.9307 165.069 124.272 165.069 253.947C165.069 383.623 64.3276 487.964 -59 487.964C-182.328 487.964 -283.069 383.623 -283.069 253.947C-283.069 124.272 -182.328 19.9307 -59 19.9307Z" stroke="#6594A1" stroke-width="21.8605"/>
</g>
<defs>
<linearGradient id="paint0_linear_680_5946" x1="9.5" y1="-7.49999" x2="366.159" y2="230.517" gradientUnits="userSpaceOnUse">
<stop offset="0.0001" stop-color="#B9D4DB"/>
<stop offset="1" stop-color="#6594A1"/>
</linearGradient>
</defs>
</svg>
